<svg width="25" height="25" viewBox="0 0 25 25" fill="none" xmlns="http://www.w3.org/2000/svg">
<path d="M2.5 8.5C2.5 6.29086 4.29086 4.5 6.5 4.5H18.5C20.7091 4.5 22.5 6.29086 22.5 8.5V16.5C22.5 18.7091 20.7091 20.5 18.5 20.5H6.5C4.29086 20.5 2.5 18.7091 2.5 16.5V8.5Z" stroke="#2B3674" stroke-width="1.5" stroke-linejoin="round"/>
<path d="M5.5 7.5H7.5" stroke="#2B3674" stroke-width="1.5" stroke-linecap="round" stroke-linejoin="round"/>
<path d="M17.5 17.5H19.5" stroke="#2B3674" stroke-width="1.5" stroke-linecap="round" stroke-linejoin="round"/>
<path d="M14.5 12.5C14.5 13.6046 13.6046 14.5 12.5 14.5C11.3954 14.5 10.5 13.6046 10.5 12.5C10.5 11.3954 11.3954 10.5 12.5 10.5C13.6046 10.5 14.5 11.3954 14.5 12.5Z" stroke="#2B3674" stroke-width="1.5"/>
</svg>
