<svg width="22" height="21" viewBox="0 0 22 21" fill="none" xmlns="http://www.w3.org/2000/svg">
<path d="M10.2916 17.9375C10.2916 18.6624 9.704 19.25 8.97913 19.25C8.25426 19.25 7.66663 18.6624 7.66663 17.9375C7.66663 17.2126 8.25426 16.625 8.97913 16.625C9.704 16.625 10.2916 17.2126 10.2916 17.9375Z" stroke="#05CD99" stroke-width="1.5"/>
<path d="M18.1666 17.9375C18.1666 18.6624 17.579 19.25 16.8541 19.25C16.1292 19.25 15.5416 18.6624 15.5416 17.9375C15.5416 17.2126 16.1292 16.625 16.8541 16.625C17.579 16.625 18.1666 17.2126 18.1666 17.9375Z" stroke="#05CD99" stroke-width="1.5"/>
<path d="M5.91663 3.5H16.4166C18.3496 3.5 19.9166 5.067 19.9166 7V11.375C19.9166 13.308 18.3496 14.875 16.4166 14.875H9.41663C7.48363 14.875 5.91663 13.308 5.91663 11.375V3.5ZM5.91663 3.5C5.91663 2.5335 5.13313 1.75 4.16663 1.75H2.41663M5.91663 7H19.4791" stroke="#05CD99" stroke-width="1.5" stroke-linecap="round" stroke-linejoin="round"/>
</svg>
