<svg width="22" height="22" viewBox="0 0 22 22" fill="none" xmlns="http://www.w3.org/2000/svg">
<path d="M16.3082 20.8543H5.69315C3.18148 20.8543 1.14648 18.8101 1.14648 16.2985V9.50597C1.14648 8.2593 1.91648 6.6918 2.90648 5.9218L7.84732 2.0718C9.33232 0.916806 11.7065 0.861806 13.2465 1.94347L18.9115 5.91264C20.0023 6.67347 20.8548 8.30514 20.8548 9.6343V16.3076C20.8548 18.8101 18.8198 20.8543 16.3082 20.8543ZM8.69065 3.15347L3.74982 7.00347C3.09898 7.5168 2.52148 8.68097 2.52148 9.50597V16.2985C2.52148 18.0493 3.94232 19.4793 5.69315 19.4793H16.3082C18.059 19.4793 19.4798 18.0585 19.4798 16.3076V9.6343C19.4798 8.7543 18.8473 7.53514 18.1231 7.04014L12.4582 3.07097C11.4132 2.33764 9.68982 2.3743 8.69065 3.15347Z" fill="white"/>
<path d="M10.6875 15.125C10.3117 15.125 10 14.8133 10 14.4375V11.6875C10 11.3117 10.3117 11 10.6875 11C11.0633 11 11.375 11.3117 11.375 11.6875V14.4375C11.375 14.8133 11.0633 15.125 10.6875 15.125Z" fill="#A3AED0"/>
</svg>
