<svg width="25" height="24" viewBox="0 0 25 24" fill="none" xmlns="http://www.w3.org/2000/svg">
<path d="M12.3335 22.7498C11.5435 22.7498 10.7936 22.3398 10.2736 21.6398L9.25355 20.2998C9.04355 20.0198 8.76357 19.8598 8.46357 19.8398C8.17357 19.8198 7.86359 19.9598 7.61359 20.2098C6.75359 21.1298 5.91354 21.5698 5.12354 21.5498C4.58354 21.5298 4.11355 21.2898 3.75355 20.8498C3.71355 20.7998 3.67356 20.7298 3.64356 20.6598C3.25356 19.8198 3.07355 18.6798 3.07355 16.9698V7.04977C3.07355 5.33977 3.25356 4.20977 3.64356 3.35977C3.67356 3.29977 3.70355 3.23977 3.75355 3.18977C4.10355 2.73977 4.57359 2.49977 5.11359 2.46977C5.91359 2.43977 6.76358 2.89977 7.60358 3.79977C7.85358 4.06977 8.15356 4.19977 8.45356 4.17977C8.75356 4.15977 9.03354 3.99977 9.24354 3.71977L10.2636 2.36977C10.7836 1.66977 11.5335 1.25977 12.3235 1.25977C13.1135 1.25977 13.8635 1.66977 14.3835 2.36977L15.3935 3.70977C15.6035 3.99977 15.8935 4.15977 16.2035 4.17977C16.4935 4.19977 16.8035 4.05977 17.0535 3.79977C17.8735 2.91977 18.6835 2.46977 19.4635 2.46977C20.0235 2.46977 20.5436 2.71977 20.9036 3.18977C20.9436 3.23977 20.9835 3.29977 21.0135 3.36977C21.4035 4.20977 21.5835 5.34977 21.5835 7.05977V16.9798C21.5835 18.6898 21.4035 19.8198 21.0135 20.6698C20.9735 20.7598 20.9236 20.8398 20.8536 20.9098C20.5436 21.3098 20.0335 21.5598 19.4635 21.5598C18.6835 21.5598 17.8735 21.1098 17.0535 20.2298C16.8135 19.9698 16.4835 19.8298 16.2035 19.8498C15.8935 19.8698 15.6135 20.0298 15.3935 20.3198L14.3835 21.6598C13.8735 22.3398 13.1235 22.7498 12.3335 22.7498ZM8.41358 18.3298C8.45358 18.3298 8.50359 18.3298 8.54359 18.3298C9.28359 18.3698 9.97355 18.7598 10.4435 19.3898L11.4635 20.7398C11.9535 21.3998 12.6935 21.3998 13.1835 20.7498L14.1935 19.4098C14.6735 18.7698 15.3736 18.3898 16.1136 18.3498C16.8536 18.3098 17.5935 18.6198 18.1335 19.1998C18.8735 19.9898 19.3235 20.0498 19.4435 20.0498C19.5235 20.0498 19.5936 20.0298 19.6636 19.9698C19.9436 19.3398 20.0635 18.3898 20.0635 16.9698V7.04977C20.0635 5.64977 19.9336 4.69977 19.6636 4.06977C19.5836 3.97977 19.5035 3.96977 19.4435 3.96977C19.3235 3.96977 18.8735 4.02977 18.1335 4.81977C17.5935 5.39977 16.8536 5.70977 16.1136 5.66977C15.3636 5.62977 14.6635 5.23977 14.1835 4.60977L13.1736 3.26977C12.6836 2.60977 11.9435 2.60977 11.4535 3.26977L10.4335 4.62977C9.96354 5.25977 9.27358 5.63977 8.53358 5.67977C7.79358 5.71977 7.05356 5.40977 6.51356 4.83977C5.90356 4.17977 5.43359 3.95977 5.17359 3.96977C5.11359 3.96977 5.04357 3.98977 4.96357 4.06977C4.69357 4.69977 4.56354 5.64977 4.56354 7.04977V16.9698C4.56354 18.3798 4.69357 19.3298 4.96357 19.9598C5.05357 20.0398 5.11359 20.0498 5.17359 20.0598C5.42359 20.0698 5.89355 19.8498 6.50355 19.1998C7.03355 18.6298 7.72358 18.3298 8.41358 18.3298Z" fill="#EE5D50"/>
<path d="M16.8333 11H8.83331C8.42331 11 8.08331 10.66 8.08331 10.25C8.08331 9.84 8.42331 9.5 8.83331 9.5H16.8333C17.2433 9.5 17.5833 9.84 17.5833 10.25C17.5833 10.66 17.2433 11 16.8333 11Z" fill="#EE5D50"/>
<path d="M14.8333 14.5H8.83331C8.42331 14.5 8.08331 14.16 8.08331 13.75C8.08331 13.34 8.42331 13 8.83331 13H14.8333C15.2433 13 15.5833 13.34 15.5833 13.75C15.5833 14.16 15.2433 14.5 14.8333 14.5Z" fill="#EE5D50"/>
</svg>
