<svg width="15" height="15" viewBox="0 0 15 15" fill="none" xmlns="http://www.w3.org/2000/svg">
<path fill-rule="evenodd" clip-rule="evenodd" d="M6.875 0.5C5.85844 0.500087 4.85665 0.743273 3.95319 1.20927C3.04974 1.67527 2.27082 2.35056 1.68143 3.17882C1.09203 4.00707 0.709257 4.96426 0.565031 5.97053C0.420804 6.97681 0.519311 8.00298 0.852333 8.96344C1.18535 9.9239 1.74323 10.7908 2.47943 11.4918C3.21562 12.1928 4.10878 12.7076 5.08438 12.9932C6.05999 13.2788 7.08976 13.327 8.08776 13.1337C9.08577 12.9404 10.0231 12.5112 10.8215 11.882L13.5605 14.621C13.702 14.7576 13.8914 14.8332 14.0881 14.8315C14.2847 14.8298 14.4728 14.7509 14.6119 14.6119C14.7509 14.4728 14.8298 14.2847 14.8315 14.0881C14.8332 13.8914 14.7576 13.702 14.621 13.5605L11.882 10.8215C12.623 9.88146 13.0844 8.7518 13.2133 7.56179C13.3423 6.37179 13.1336 5.16952 12.6112 4.09257C12.0887 3.01562 11.2737 2.10752 10.2592 1.47217C9.24479 0.83683 8.07197 0.49992 6.875 0.5ZM2 6.875C2 5.58207 2.51361 4.34209 3.42785 3.42785C4.34209 2.51361 5.58207 2 6.875 2C8.16793 2 9.40791 2.51361 10.3221 3.42785C11.2364 4.34209 11.75 5.58207 11.75 6.875C11.75 8.16793 11.2364 9.40791 10.3221 10.3221C9.40791 11.2364 8.16793 11.75 6.875 11.75C5.58207 11.75 4.34209 11.2364 3.42785 10.3221C2.51361 9.40791 2 8.16793 2 6.875Z" fill="#8B909A"/>
</svg>
